<svg xmlns="http://www.w3.org/2000/svg" width="199" height="54" viewBox="0 0 199 54" fill="none"><path d="M66.5408 26.0533V20.2249H69.9978C71.5983 20.2249 72.8787 19.804 73.7963 18.9834C74.7352 18.1628 75.2047 17.0897 75.2047 15.7641C75.2047 14.4385 74.7352 13.3864 73.7963 12.5658C72.8787 11.7452 71.5983 11.3244 69.9978 11.3244H63.468V26.0533H66.5408ZM66.5408 13.9756H69.7844C71.2569 13.9756 72.1318 14.6279 72.1318 15.8062C72.1318 16.9845 71.2569 17.6368 69.7844 17.6368H66.5408V13.9756Z" fill="black"/><path d="M79.5241 26.0533V19.9303C79.9509 18.9834 81.1886 18.0997 82.6397 18.0997C83.0024 18.0997 83.3225 18.1418 83.5786 18.2049V15.3012C83.4932 15.2802 83.3865 15.2802 83.2372 15.2802C82.4476 15.2802 81.7007 15.4906 81.0179 15.8904C80.335 16.2901 79.8442 16.7741 79.5241 17.3212V15.5537H76.5152V26.0533H79.5241Z" fill="black"/><path d="M90.1053 26.3269C91.8552 26.3269 93.1996 25.9691 94.1598 25.2537V22.8761C93.0715 23.4863 91.9405 23.8019 90.7455 23.8019C88.8676 23.8019 87.5019 23.0444 87.1818 21.6136H94.8214V20.8351C94.8214 19.278 94.3519 17.9734 93.4343 16.9003C92.5167 15.8272 91.3003 15.2802 89.7426 15.2802C88.0994 15.2802 86.755 15.8062 85.7307 16.8793C84.7064 17.9314 84.1943 19.2359 84.1943 20.793C84.1943 22.4552 84.7704 23.8019 85.9014 24.8119C87.0324 25.8219 88.4408 26.3269 90.1053 26.3269ZM87.1818 19.7199C87.3312 18.4784 88.2488 17.6157 89.6145 17.6157C90.9589 17.6157 91.7911 18.5626 91.8552 19.7199H87.1818Z" fill="black"/><path d="M99.4999 26.0533V19.3832C99.9267 18.6047 100.866 17.9945 101.741 17.9945C102.914 17.9945 103.512 18.7099 103.512 20.1617V26.0533H106.521V19.4253C106.926 18.6047 107.822 17.9945 108.74 17.9945C109.914 17.9945 110.511 18.7099 110.511 20.1617V26.0533H113.52V19.4884C113.52 16.732 112.005 15.2802 109.721 15.2802C108.185 15.2802 106.755 16.0376 106.051 17.0687C105.603 16.0797 104.344 15.2802 102.743 15.2802C101.378 15.2802 100.289 15.8062 99.4999 16.8372V15.5537H96.491V26.0533H99.4999Z" fill="black"/><path d="M118.765 26.0533V15.5537H115.756V26.0533H118.765ZM115.457 12.7762C115.457 13.7652 116.247 14.5437 117.25 14.5437C118.253 14.5437 119.042 13.7652 119.042 12.7762C119.042 11.7663 118.253 10.9877 117.25 10.9877C116.247 10.9877 115.457 11.7663 115.457 12.7762Z" fill="black"/><path d="M126.425 26.3269C128.175 26.3269 129.519 25.9691 130.48 25.2537V22.8761C129.391 23.4863 128.26 23.8019 127.065 23.8019C125.187 23.8019 123.822 23.0444 123.501 21.6136H131.141V20.8351C131.141 19.278 130.672 17.9734 129.754 16.9003C128.836 15.8272 127.62 15.2802 126.062 15.2802C124.419 15.2802 123.075 15.8062 122.05 16.8793C121.026 17.9314 120.514 19.2359 120.514 20.793C120.514 22.4552 121.09 23.8019 122.221 24.8119C123.352 25.8219 124.761 26.3269 126.425 26.3269ZM123.501 19.7199C123.651 18.4784 124.568 17.6157 125.934 17.6157C127.279 17.6157 128.111 18.5626 128.175 19.7199H123.501Z" fill="black"/><path d="M135.82 26.0533V19.9303C136.246 18.9834 137.484 18.0997 138.935 18.0997C139.298 18.0997 139.618 18.1418 139.874 18.2049V15.3012C139.789 15.2802 139.682 15.2802 139.533 15.2802C138.743 15.2802 137.996 15.4906 137.313 15.8904C136.63 16.2901 136.14 16.7741 135.82 17.3212V15.5537H132.811V26.0533H135.82Z" fill="black"/><path d="M152.013 26.0533V23.339H144.438V11.3244H141.365V26.0533H152.013Z" fill="black"/><path d="M158.618 26.3269C160.368 26.3269 161.713 25.9691 162.673 25.2537V22.8761C161.585 23.4863 160.454 23.8019 159.259 23.8019C157.381 23.8019 156.015 23.0444 155.695 21.6136H163.335V20.8351C163.335 19.278 162.865 17.9734 161.947 16.9003C161.03 15.8272 159.813 15.2802 158.256 15.2802C156.613 15.2802 155.268 15.8062 154.244 16.8793C153.22 17.9314 152.707 19.2359 152.707 20.793C152.707 22.4552 153.284 23.8019 154.415 24.8119C155.546 25.8219 156.954 26.3269 158.618 26.3269ZM155.695 19.7199C155.844 18.4784 156.762 17.6157 158.128 17.6157C159.472 17.6157 160.304 18.5626 160.368 19.7199H155.695Z" fill="black"/><path d="M175.14 23.7598C174.65 23.7598 174.394 23.4863 174.394 22.9602V19.4043C174.394 18.1207 173.924 17.1108 172.985 16.3743C172.068 15.6379 170.83 15.2802 169.315 15.2802C167.757 15.2802 166.455 15.5537 165.367 16.1218V18.6047C166.37 18.0155 167.458 17.721 168.589 17.721C170.467 17.721 171.406 18.3732 171.406 19.6988V20.0145C170.552 19.5726 169.528 19.3622 168.333 19.3622C167.181 19.3622 166.199 19.6568 165.367 20.2459C164.535 20.8351 164.129 21.6978 164.129 22.813C164.129 24.9381 165.751 26.3269 168.056 26.3269C169.571 26.3269 170.787 25.8429 171.726 24.896C172.132 25.8008 172.921 26.2427 174.137 26.2427C174.842 26.2427 175.375 26.0954 175.759 25.8008V23.6336C175.61 23.7177 175.396 23.7598 175.14 23.7598ZM171.406 22.9602C170.851 23.6756 170.04 24.0333 168.995 24.0333C167.885 24.0333 167.095 23.5915 167.095 22.6657C167.095 21.803 167.906 21.298 169.187 21.298C170.062 21.298 170.787 21.5084 171.406 21.9082V22.9602Z" fill="black"/><path d="M181.512 26.3269C183.048 26.3269 184.222 25.8008 185.011 24.7698V26.0533H188.02V11.3244H185.011V16.8372C184.179 15.8062 183.027 15.2802 181.512 15.2802C180.061 15.2802 178.866 15.8062 177.905 16.8793C176.966 17.9314 176.497 19.2359 176.497 20.793C176.497 22.3711 176.966 23.6756 177.905 24.7488C178.866 25.8008 180.061 26.3269 181.512 26.3269ZM182.365 23.7388C181.533 23.7388 180.829 23.4652 180.295 22.8971C179.762 22.329 179.484 21.6346 179.484 20.793C179.484 19.9724 179.762 19.278 180.295 18.7099C180.829 18.1418 181.533 17.8682 182.365 17.8682C183.539 17.8682 184.52 18.5205 185.011 19.4253V22.1607C184.52 23.0654 183.539 23.7388 182.365 23.7388Z" fill="black"/><path d="M194.241 26.3269C195.671 26.3269 196.823 26.0323 197.698 25.4221C198.573 24.8119 199 24.0333 199 23.0444C199 21.2138 197.826 20.2459 195.522 19.7199L194.391 19.4884C194.135 19.4043 193.708 19.2991 193.473 19.2149C193.153 19.0255 192.876 18.8782 192.876 18.5205C192.876 17.9524 193.452 17.6789 194.583 17.6789C195.884 17.6789 197.165 18.0366 198.445 18.773V16.2481C197.4 15.5958 196.055 15.2802 194.455 15.2802C191.531 15.2802 189.76 16.5006 189.76 18.4995C189.76 20.3511 190.763 21.1086 193.217 21.7609C193.409 21.824 193.708 21.8871 194.071 21.9923L194.86 22.1817C195.031 22.2238 195.223 22.2869 195.415 22.3711C195.82 22.5394 195.948 22.7498 195.948 23.0234C195.948 23.6125 195.33 23.9071 194.113 23.9071C192.385 23.9071 190.699 23.3179 189.76 22.7077V25.3379C190.848 25.9902 192.342 26.3269 194.241 26.3269Z" fill="black"/><path d="M62.2638 42.5858L66.1537 34.1091H66.5073L70.3972 42.5858H69.9948L68.812 40.0247H63.8368L62.654 42.5858H62.2638ZM63.9831 39.6881H68.6778L66.3244 34.6261L63.9831 39.6881Z" fill="black"/><path d="M78.6954 42.5858V37.2473H75.6835V42.5858H75.3055V37.2473H72.3057V42.5858H71.9277V37.2473H70.6961V36.8986H71.9277V35.6482C71.9277 35.1592 72.0537 34.7784 72.3057 34.5059C72.5578 34.2334 72.9154 34.0971 73.3788 34.0971C73.7609 34.0971 74.1145 34.1773 74.4397 34.3376V34.6983C74.147 34.53 73.8097 34.4458 73.4276 34.4458C73.0618 34.4458 72.7813 34.558 72.5862 34.7825C72.3992 35.0069 72.3057 35.3235 72.3057 35.7323V36.8986H75.3055V35.6482C75.3055 35.1592 75.4315 34.7784 75.6835 34.5059C75.9355 34.2334 76.2932 34.0971 76.7566 34.0971C77.1386 34.0971 77.4923 34.1773 77.8174 34.3376V34.6983C77.5248 34.53 77.1874 34.4458 76.8053 34.4458C76.4395 34.4458 76.1591 34.558 75.9639 34.7825C75.777 35.0069 75.6835 35.3235 75.6835 35.7323V36.8986H79.0734V42.5858H78.6954ZM78.6222 35.0951C78.5572 35.0229 78.5247 34.9348 78.5247 34.8305C78.5247 34.7263 78.5572 34.6422 78.6222 34.5781C78.6954 34.5059 78.7848 34.4698 78.8905 34.4698C78.9962 34.4698 79.0815 34.5059 79.1466 34.5781C79.2197 34.6422 79.2563 34.7263 79.2563 34.8305C79.2563 34.9348 79.2197 35.0229 79.1466 35.0951C79.0815 35.1592 78.9962 35.1913 78.8905 35.1913C78.7848 35.1913 78.6954 35.1592 78.6222 35.0951Z" fill="black"/><path d="M82.3444 42.7301C82.0111 42.7301 81.7265 42.6339 81.4908 42.4415C81.2632 42.2491 81.1494 41.9165 81.1494 41.4435V34.1693H81.5274V41.3954C81.5274 42.0527 81.8282 42.3814 82.4297 42.3814C82.6573 42.3814 82.8728 42.3172 83.076 42.189V42.5617C82.8972 42.6739 82.6533 42.7301 82.3444 42.7301Z" fill="black"/><path d="M84.2644 42.5858V36.8986H84.6425V42.5858H84.2644ZM84.1913 35.0951C84.1262 35.0229 84.0937 34.9348 84.0937 34.8305C84.0937 34.7263 84.1262 34.6422 84.1913 34.5781C84.2644 34.5059 84.3539 34.4698 84.4595 34.4698C84.5652 34.4698 84.6506 34.5059 84.7156 34.5781C84.7888 34.6422 84.8254 34.7263 84.8254 34.8305C84.8254 34.9348 84.7888 35.0229 84.7156 35.0951C84.6506 35.1592 84.5652 35.1913 84.4595 35.1913C84.3539 35.1913 84.2644 35.1592 84.1913 35.0951Z" fill="black"/><path d="M88.5706 42.3814C89.0828 42.3814 89.5502 42.2611 89.973 42.0207C90.3957 41.7802 90.7371 41.4916 90.9972 41.155V40.0849C90.2493 39.6039 89.4933 39.3635 88.7292 39.3635C88.0788 39.3635 87.5626 39.5037 87.1805 39.7843C86.7984 40.0568 86.6074 40.4215 86.6074 40.8784C86.6074 41.3914 86.7984 41.7722 87.1805 42.0207C87.5626 42.2611 88.026 42.3814 88.5706 42.3814ZM88.4609 42.7301C87.8512 42.7301 87.3228 42.5697 86.8757 42.2491C86.4367 41.9205 86.2172 41.4636 86.2172 40.8784C86.2172 40.3334 86.4448 39.8925 86.9001 39.5558C87.3553 39.2111 87.9325 39.0388 88.6316 39.0388C89.4527 39.0388 90.2412 39.2592 90.9972 39.7001V38.8104C90.9972 38.2493 90.8103 37.8244 90.4363 37.5359C90.0705 37.2473 89.538 37.103 88.8389 37.103C88.0829 37.103 87.4244 37.3074 86.8635 37.7162V37.3194C87.4244 36.9427 88.1032 36.7543 88.8999 36.7543C89.6396 36.7543 90.2372 36.9227 90.6924 37.2593C91.1476 37.596 91.3753 38.113 91.3753 38.8104V41.4315C91.3753 41.704 91.4322 41.9165 91.546 42.0688C91.6679 42.2211 91.8305 42.2972 92.0337 42.2972C92.1557 42.2972 92.2654 42.2732 92.363 42.2251V42.5497C92.2817 42.5978 92.1516 42.6218 91.9728 42.6218C91.7126 42.6218 91.4891 42.5337 91.3021 42.3573C91.1233 42.181 91.0257 41.9245 91.0094 41.5878C90.3591 42.3493 89.5096 42.7301 88.4609 42.7301Z" fill="black"/><path d="M95.6912 42.7301C95.2278 42.7301 94.8701 42.6018 94.6181 42.3453C94.3661 42.0888 94.2401 41.7121 94.2401 41.2151V37.2473H92.7158V36.8986H94.2401V35.0109H94.6181V36.8986H96.8618V37.2473H94.6181V41.1189C94.6181 41.5598 94.7116 41.8804 94.8986 42.0808C95.0937 42.2812 95.3782 42.3814 95.7521 42.3814C96.0854 42.3814 96.4269 42.2852 96.7764 42.0928V42.4535C96.5082 42.6379 96.1464 42.7301 95.6912 42.7301Z" fill="black"/><path d="M100.839 42.7301C99.9369 42.7301 99.1849 42.4495 98.5833 41.8884C97.9818 41.3193 97.681 40.6059 97.681 39.7482C97.681 38.8905 97.9493 38.1771 98.4858 37.608C99.0305 37.0389 99.7215 36.7543 100.559 36.7543C101.047 36.7543 101.473 36.8545 101.839 37.0549C102.205 37.2473 102.481 37.4998 102.668 37.8124C102.855 38.117 102.989 38.4216 103.071 38.7262C103.16 39.0228 103.205 39.3154 103.205 39.6039V39.7242H98.0712C98.0875 40.5097 98.3517 41.151 98.8638 41.6479C99.3841 42.1369 100.055 42.3814 100.876 42.3814C101.599 42.3814 102.221 42.205 102.742 41.8523V42.2251C102.278 42.5617 101.644 42.7301 100.839 42.7301ZM98.0834 39.4115H102.827C102.819 39.2192 102.79 39.0268 102.742 38.8344C102.693 38.634 102.611 38.4296 102.498 38.2212C102.384 38.0128 102.246 37.8284 102.083 37.6681C101.92 37.4998 101.705 37.3635 101.437 37.2593C101.168 37.1551 100.872 37.103 100.547 37.103C99.8231 37.103 99.2378 37.3395 98.7906 37.8124C98.3517 38.2773 98.1159 38.8104 98.0834 39.4115Z" fill="black"/><path d="M107.995 42.5858H107.617V36.8986H107.995V37.9567C108.256 37.6361 108.609 37.3555 109.056 37.115C109.512 36.8746 109.999 36.7543 110.52 36.7543C111.268 36.7543 111.828 36.9627 112.202 37.3796C112.585 37.7884 112.776 38.3735 112.776 39.135V42.5858H112.398V39.2071C112.398 37.8044 111.743 37.103 110.434 37.103C109.963 37.103 109.495 37.2433 109.032 37.5238C108.569 37.7964 108.223 38.113 107.995 38.4737V42.5858Z" fill="black"/><path d="M117.283 42.7301C116.38 42.7301 115.628 42.4495 115.027 41.8884C114.425 41.3193 114.124 40.6059 114.124 39.7482C114.124 38.8905 114.393 38.1771 114.929 37.608C115.474 37.0389 116.165 36.7543 117.002 36.7543C117.49 36.7543 117.917 36.8545 118.282 37.0549C118.648 37.2473 118.925 37.4998 119.112 37.8124C119.299 38.117 119.433 38.4216 119.514 38.7262C119.603 39.0228 119.648 39.3154 119.648 39.6039V39.7242H114.515C114.531 40.5097 114.795 41.151 115.307 41.6479C115.827 42.1369 116.498 42.3814 117.319 42.3814C118.043 42.3814 118.665 42.205 119.185 41.8523V42.2251C118.721 42.5617 118.087 42.7301 117.283 42.7301ZM114.527 39.4115H119.27C119.262 39.2192 119.234 39.0268 119.185 38.8344C119.136 38.634 119.055 38.4296 118.941 38.2212C118.827 38.0128 118.689 37.8284 118.526 37.6681C118.364 37.4998 118.148 37.3635 117.88 37.2593C117.612 37.1551 117.315 37.103 116.99 37.103C116.266 37.103 115.681 37.3395 115.234 37.8124C114.795 38.2773 114.559 38.8104 114.527 39.4115Z" fill="black"/><path d="M123.18 42.7301C122.717 42.7301 122.359 42.6018 122.107 42.3453C121.855 42.0888 121.729 41.7121 121.729 41.2151V37.2473H120.205V36.8986H121.729V35.0109H122.107V36.8986H124.351V37.2473H122.107V41.1189C122.107 41.5598 122.2 41.8804 122.387 42.0808C122.583 42.2812 122.867 42.3814 123.241 42.3814C123.574 42.3814 123.916 42.2852 124.265 42.0928V42.4535C123.997 42.6379 123.635 42.7301 123.18 42.7301Z" fill="black"/><path d="M127.313 42.6339L125.167 36.8986H125.569L127.484 42.0447L129.362 36.8746H129.691L131.569 42.0447L133.483 36.8986H133.874L131.74 42.6339H131.41L129.52 37.4517L127.655 42.6339H127.313Z" fill="black"/><path d="M137.713 42.3814C138.46 42.3814 139.086 42.1289 139.59 41.6239C140.103 41.1109 140.359 40.4857 140.359 39.7482C140.359 39.0027 140.103 38.3775 139.59 37.8725C139.086 37.3595 138.46 37.103 137.713 37.103C136.957 37.103 136.322 37.3595 135.81 37.8725C135.306 38.3775 135.054 39.0027 135.054 39.7482C135.054 40.4937 135.306 41.1189 135.81 41.6239C136.322 42.1289 136.957 42.3814 137.713 42.3814ZM139.895 41.8523C139.334 42.4375 138.607 42.7301 137.713 42.7301C136.818 42.7301 136.087 42.4375 135.518 41.8523C134.949 41.2592 134.664 40.5578 134.664 39.7482C134.664 38.9306 134.945 38.2292 135.505 37.6441C136.075 37.0509 136.81 36.7543 137.713 36.7543C138.607 36.7543 139.334 37.0509 139.895 37.6441C140.464 38.2292 140.749 38.9306 140.749 39.7482C140.749 40.5578 140.464 41.2592 139.895 41.8523Z" fill="black"/><path d="M142.216 42.5858V36.8986H142.594V38.137C142.789 37.7843 143.094 37.4677 143.508 37.1872C143.931 36.8986 144.411 36.7543 144.947 36.7543V37.1271C144.419 37.1271 143.939 37.2834 143.508 37.596C143.077 37.9086 142.772 38.2733 142.594 38.6901V42.5858H142.216Z" fill="black"/><path d="M150.13 42.5858L146.703 39.628V39.3274L149.691 36.8986H150.264L147.069 39.4717L150.703 42.5858H150.13ZM146.288 34.1693V42.5858H145.91V34.1693H146.288Z" fill="black"/><path d="M42.419 22.7503C44.3716 24.7029 44.3716 27.8687 42.419 29.8213L26.5128 45.7275C24.5602 47.6801 21.3944 47.6802 19.4417 45.7275L3.53553 29.8213C1.58291 27.8687 1.58291 24.7029 3.53553 22.7503L19.4417 6.84407C21.3943 4.89144 24.5602 4.89144 26.5128 6.84407L42.419 22.7503Z" fill="url(#paint0_linear_162_639)" fill-opacity="0.5"/><path d="M57.6142 21.9091C60.3478 24.6428 60.3478 29.075 57.6142 31.8086L40.6548 48.768C37.9211 51.5017 33.4889 51.5017 30.7553 48.768L13.7959 31.8086C11.0622 29.075 11.0622 24.6428 13.7959 21.9091L30.7553 4.94974C33.4889 2.21607 37.9211 2.21607 40.6548 4.94974L57.6142 21.9091Z" fill="url(#paint1_linear_162_639)"/><defs><linearGradient id="paint0_linear_162_639" x1="34.4659" y1="37.7744" x2="11.4886" y2="14.7972" gradientUnits="userSpaceOnUse"><stop stop-color="#48A5E8"/><stop offset="1" stop-color="#62BDFF"/></linearGradient><linearGradient id="paint1_linear_162_639" x1="49.1345" y1="40.2883" x2="22.2756" y2="13.4294" gradientUnits="userSpaceOnUse"><stop stop-color="#48A5E8"/><stop offset="1" stop-color="#62BDFF"/></linearGradient></defs></svg>